<?xml version="1.0" standalone="no"?>
<!DOCTYPE svg PUBLIC "-//W3C//DTD SVG 1.1//EN" "http://www.w3.org/Graphics/SVG/1.1/DTD/svg11.dtd">
<svg version="1.1" xmlns="http://www.w3.org/2000/svg" viewBox="0 0 131.99999999999966 177" width="131.99999999999966" height="177"><!-- svg-source:excalidraw --><metadata></metadata><defs><style class="style-fonts">
      </style></defs><g transform="translate(9.5 130.5) rotate(270 0.5 0)" stroke="none"><path fill="#1e1e1e" d="M 4.24,-1.32 Q 4.24,-1.32 4.30,-0.26 4.36,0.80 3.93,1.76 3.49,2.73 2.65,3.39 1.82,4.05 0.77,4.24 -0.26,4.43 -1.28,4.11 -2.29,3.80 -3.04,3.04 -3.80,2.29 -4.11,1.28 -4.43,0.26 -4.24,-0.77 -4.04,-1.82 -3.39,-2.65 -2.73,-3.49 -1.76,-3.93 -0.79,-4.36 0.26,-4.30 1.32,-4.23 2.23,-3.68 3.14,-3.13 3.69,-2.23 L 4.24,-1.32 Z"></path></g><g transform="translate(12.999999999999204 47.99989999999946) rotate(270 0.00004999999998744897 0.00004999999998744897)" stroke="none"><path fill="#1e1e1e" d="M 3.14,-3.14 Q 3.14,-3.14 3.55,-2.55 3.97,-1.97 4.18,-1.28 4.40,-0.59 4.38,0.11 4.36,0.83 4.11,1.51 3.86,2.18 3.41,2.74 2.96,3.30 2.36,3.69 1.75,4.08 1.05,4.25 0.36,4.42 -0.35,4.36 -1.07,4.31 -1.73,4.02 -2.39,3.74 -2.92,3.26 -3.46,2.78 -3.81,2.15 -4.16,1.53 -4.30,0.82 -4.43,0.11 -4.34,-0.59 -4.24,-1.30 -3.92,-1.94 -3.60,-2.59 -3.09,-3.09 -2.59,-3.60 -1.94,-3.92 -1.30,-4.24 -0.59,-4.34 0.12,-4.43 0.82,-4.30 1.53,-4.16 2.15,-3.81 2.78,-3.46 3.26,-2.92 3.74,-2.39 4.02,-1.73 4.31,-1.07 4.36,-0.35 4.42,0.36 4.25,1.05 4.07,1.75 3.69,2.36 3.30,2.96 2.74,3.41 2.18,3.86 1.51,4.11 0.83,4.36 0.11,4.38 -0.60,4.40 -1.28,4.18 -1.97,3.97 -2.55,3.55 -3.14,3.13 -3.14,3.14 -3.14,3.14 -3.47,2.71 -3.80,2.29 -4.02,1.80 -4.24,1.32 -4.33,0.79 -4.43,0.26 -4.40,-0.26 -4.36,-0.80 -4.20,-1.31 -4.04,-1.82 -3.77,-2.28 -3.49,-2.73 -3.11,-3.11 -2.73,-3.49 -2.28,-3.77 -1.82,-4.05 -1.31,-4.20 -0.80,-4.36 -0.26,-4.40 0.26,-4.43 0.79,-4.33 1.32,-4.24 1.80,-4.02 2.29,-3.80 2.71,-3.47 3.14,-3.14 3.14,-3.14 L 3.14,-3.14 Z"></path></g><g transform="translate(5.499999999999659 116.5) rotate(270 78.5 -28)" stroke="none"><path fill="#1e1e1e" d="M -5.12,-0.56 Q -5.12,-0.56 -4.84,-3.17 -4.57,-5.77 -3.80,-8.32 -3.03,-10.87 -2.16,-13.22 -1.28,-15.56 0.07,-18.22 1.43,-20.88 2.89,-23.41 4.35,-25.95 5.53,-27.96 6.70,-29.97 8.29,-32.90 9.88,-35.84 11.84,-38.61 13.80,-41.39 15.58,-43.37 17.36,-45.35 20.27,-48.15 23.18,-50.95 26.88,-53.05 30.58,-55.14 32.69,-56.25 34.79,-57.36 37.81,-58.52 40.84,-59.68 43.64,-60.85 46.44,-62.02 49.19,-63.15 51.94,-64.27 55.69,-65.26 59.44,-66.25 62.81,-66.96 66.19,-67.67 69.35,-68.26 72.52,-68.84 74.91,-69.42 77.30,-70.01 79.76,-70.35 82.22,-70.70 84.45,-70.88 86.67,-71.06 90.42,-71.26 94.17,-71.46 97.95,-70.82 101.74,-70.18 103.85,-69.74 105.97,-69.31 108.11,-68.83 110.24,-68.35 114.35,-66.98 118.46,-65.60 120.53,-64.65 122.60,-63.70 125.33,-62.36 128.07,-61.02 131.19,-59.07 134.32,-57.12 136.50,-55.80 138.68,-54.49 141.06,-52.90 143.43,-51.31 145.35,-48.84 147.26,-46.38 148.58,-43.76 149.91,-41.14 151.01,-38.66 152.11,-36.17 153.22,-32.75 154.33,-29.32 155.13,-24.97 155.92,-20.62 157.02,-18.04 158.12,-15.46 158.53,-13.36 158.93,-11.26 159.73,-8.24 160.53,-5.22 161.31,-2.06 162.09,1.10 162.84,5.22 163.59,9.35 163.52,10.42 163.45,11.49 163.04,12.48 162.64,13.47 161.93,14.28 161.23,15.09 160.31,15.63 159.38,16.18 158.33,16.40 157.28,16.62 156.22,16.49 155.15,16.36 154.18,15.90 153.22,15.44 152.45,14.69 151.68,13.95 151.18,12.99 150.69,12.04 150.53,10.98 150.37,9.92 150.55,8.87 150.74,7.81 151.25,6.87 151.76,5.93 152.55,5.20 153.34,4.47 154.31,4.03 155.29,3.59 156.36,3.49 157.43,3.38 158.47,3.62 159.52,3.87 160.43,4.43 161.34,4.99 162.03,5.82 162.71,6.64 163.10,7.64 163.48,8.64 163.53,9.71 163.57,10.78 163.28,11.81 162.98,12.84 162.37,13.72 161.75,14.60 160.89,15.24 160.03,15.88 159.01,16.21 157.99,16.55 156.92,16.53 155.85,16.52 154.84,16.17 153.83,15.81 152.98,15.16 152.13,14.50 151.54,13.60 150.95,12.71 150.68,11.67 150.40,10.64 150.40,10.64 150.40,10.64 150.31,9.51 150.22,8.39 149.76,5.77 149.30,3.15 148.71,0.53 148.11,-2.08 147.23,-5.67 146.34,-9.27 145.74,-11.73 145.14,-14.19 144.29,-16.67 143.44,-19.15 142.81,-22.51 142.18,-25.87 141.29,-28.82 140.40,-31.78 139.49,-34.20 138.58,-36.62 137.49,-39.22 136.41,-41.82 134.74,-43.57 133.07,-45.32 131.04,-46.58 129.00,-47.84 126.26,-49.25 123.51,-50.66 120.56,-51.82 117.62,-52.98 114.22,-54.53 110.82,-56.08 107.20,-57.06 103.59,-58.04 101.35,-58.53 99.12,-59.01 96.67,-59.74 94.22,-60.48 90.69,-60.56 87.16,-60.64 83.29,-60.51 79.42,-60.38 76.90,-59.88 74.37,-59.37 71.38,-58.75 68.40,-58.14 65.41,-57.37 62.42,-56.61 59.31,-55.48 56.20,-54.35 53.64,-53.19 51.08,-52.03 48.15,-50.53 45.22,-49.04 42.87,-47.99 40.52,-46.95 36.56,-44.87 32.60,-42.80 30.52,-41.40 28.44,-40.00 25.86,-37.28 23.29,-34.56 21.36,-32.21 19.43,-29.86 17.64,-27.12 15.85,-24.38 14.69,-22.58 13.54,-20.77 12.23,-18.39 10.91,-16.01 9.81,-13.86 8.71,-11.72 7.21,-8.14 5.72,-4.57 5.42,-2.00 5.12,0.56 4.98,1.17 4.84,1.77 4.55,2.33 4.27,2.88 3.86,3.35 3.45,3.82 2.95,4.18 2.44,4.54 1.86,4.76 1.28,4.99 0.66,5.07 0.05,5.15 -0.56,5.08 -1.18,5.01 -1.76,4.80 -2.35,4.59 -2.86,4.24 -3.38,3.89 -3.79,3.43 -4.21,2.97 -4.50,2.42 -4.80,1.87 -4.95,1.27 -5.11,0.67 -5.11,0.05 -5.12,-0.57 -5.12,-0.56 L -5.12,-0.56 Z"></path></g></svg>