<?xml version="1.0" standalone="no"?>
<!DOCTYPE svg PUBLIC "-//W3C//DTD SVG 1.1//EN" "http://www.w3.org/Graphics/SVG/1.1/DTD/svg11.dtd">
<svg version="1.1" xmlns="http://www.w3.org/2000/svg" viewBox="0 0 109.3276540461344 177.04991239561153" width="109.3276540461344" height="177.04991239561153"><!-- svg-source:excalidraw --><metadata></metadata><defs><style class="style-fonts">
      </style></defs><g transform="translate(10.000000234188178 131.93752353587703) rotate(270.2689922936965 0.00004999999998744897 0.00004999999998744897)" stroke="none"><path fill="#1e1e1e" d="M 3.14,-3.14 Q 3.14,-3.14 3.55,-2.55 3.97,-1.97 4.18,-1.28 4.40,-0.59 4.38,0.11 4.36,0.83 4.11,1.51 3.86,2.18 3.41,2.74 2.96,3.30 2.36,3.69 1.75,4.08 1.05,4.25 0.36,4.42 -0.35,4.36 -1.07,4.31 -1.73,4.02 -2.39,3.74 -2.92,3.26 -3.46,2.78 -3.81,2.15 -4.16,1.53 -4.30,0.82 -4.43,0.11 -4.34,-0.59 -4.24,-1.30 -3.92,-1.94 -3.60,-2.59 -3.09,-3.09 -2.59,-3.60 -1.94,-3.92 -1.30,-4.24 -0.59,-4.34 0.12,-4.43 0.82,-4.30 1.53,-4.16 2.15,-3.81 2.78,-3.46 3.26,-2.92 3.74,-2.39 4.02,-1.73 4.31,-1.07 4.36,-0.35 4.42,0.36 4.25,1.05 4.07,1.75 3.69,2.36 3.30,2.96 2.74,3.41 2.18,3.86 1.51,4.11 0.83,4.36 0.11,4.38 -0.60,4.40 -1.28,4.18 -1.97,3.97 -2.55,3.55 -3.14,3.13 -3.14,3.14 -3.14,3.14 -3.47,2.71 -3.80,2.29 -4.02,1.80 -4.24,1.32 -4.33,0.79 -4.43,0.26 -4.40,-0.26 -4.36,-0.80 -4.20,-1.31 -4.04,-1.82 -3.77,-2.28 -3.49,-2.73 -3.11,-3.11 -2.73,-3.49 -2.28,-3.77 -1.82,-4.05 -1.31,-4.20 -0.80,-4.36 -0.26,-4.40 0.26,-4.43 0.79,-4.33 1.32,-4.24 1.80,-4.02 2.29,-3.80 2.71,-3.47 3.14,-3.14 3.14,-3.14 L 3.14,-3.14 Z"></path></g><g transform="translate(12.399034828058234 46.94784985126145) rotate(270.2689922936965 0.00004999999998744897 0.00004999999998744897)" stroke="none"><path fill="#1e1e1e" d="M 3.14,-3.14 Q 3.14,-3.14 3.55,-2.55 3.97,-1.97 4.18,-1.28 4.40,-0.59 4.38,0.11 4.36,0.83 4.11,1.51 3.86,2.18 3.41,2.74 2.96,3.30 2.36,3.69 1.75,4.08 1.05,4.25 0.36,4.42 -0.35,4.36 -1.07,4.31 -1.73,4.02 -2.39,3.74 -2.92,3.26 -3.46,2.78 -3.81,2.15 -4.16,1.53 -4.30,0.82 -4.43,0.11 -4.34,-0.59 -4.24,-1.30 -3.92,-1.94 -3.60,-2.59 -3.09,-3.09 -2.59,-3.60 -1.94,-3.92 -1.30,-4.24 -0.59,-4.34 0.12,-4.43 0.82,-4.30 1.53,-4.16 2.15,-3.81 2.78,-3.46 3.26,-2.92 3.74,-2.39 4.02,-1.73 4.31,-1.07 4.36,-0.35 4.42,0.36 4.25,1.05 4.07,1.75 3.69,2.36 3.30,2.96 2.74,3.41 2.18,3.86 1.51,4.11 0.83,4.36 0.11,4.38 -0.60,4.40 -1.28,4.18 -1.97,3.97 -2.55,3.55 -3.14,3.13 -3.14,3.14 -3.14,3.14 -3.47,2.71 -3.80,2.29 -4.02,1.80 -4.24,1.32 -4.33,0.79 -4.43,0.26 -4.40,-0.26 -4.36,-0.80 -4.20,-1.31 -4.04,-1.82 -3.77,-2.28 -3.49,-2.73 -3.11,-3.11 -2.73,-3.49 -2.28,-3.77 -1.82,-4.05 -1.31,-4.20 -0.80,-4.36 -0.26,-4.40 0.26,-4.43 0.79,-4.33 1.32,-4.24 1.80,-4.02 2.29,-3.80 2.71,-3.47 3.14,-3.14 3.14,-3.14 L 3.14,-3.14 Z"></path></g><g transform="translate(-17.296338947066715 59.67753667588951) rotate(270.2689922936965 78.5 29)" stroke="none"><path fill="#1e1e1e" d="M 5.21,-0.65 Q 5.21,-0.65 5.53,1.62 5.85,3.90 7.12,6.80 8.39,9.70 10.08,13.19 11.77,16.68 12.74,18.61 13.71,20.55 15.68,23.27 17.64,25.98 20.05,28.91 22.46,31.83 24.33,33.82 26.20,35.81 28.65,37.11 31.10,38.40 34.47,40.32 37.84,42.24 40.03,43.33 42.22,44.42 45.27,45.81 48.31,47.21 50.32,48.06 52.33,48.91 54.47,49.93 56.61,50.94 60.03,52.08 63.45,53.23 66.05,53.82 68.65,54.41 71.24,55.22 73.82,56.03 77.71,57.12 81.60,58.20 85.57,59.23 89.54,60.25 92.27,60.43 95.00,60.60 97.63,60.60 100.26,60.59 102.43,60.33 104.60,60.07 107.37,59.41 110.14,58.75 113.48,58.21 116.81,57.68 119.35,57.00 121.90,56.32 124.73,54.13 127.56,51.95 130.51,49.54 133.46,47.13 135.38,45.03 137.30,42.92 138.60,40.29 139.89,37.66 141.42,34.54 142.95,31.42 143.98,29.44 145.01,27.46 145.56,24.95 146.12,22.44 147.08,18.83 148.04,15.23 149.07,11.81 150.10,8.40 150.25,5.73 150.40,3.06 150.44,-0.00 150.47,-3.06 150.47,-5.55 150.48,-8.04 150.66,-9.08 150.84,-10.12 151.34,-11.05 151.84,-11.98 152.61,-12.70 153.38,-13.42 154.34,-13.85 155.30,-14.29 156.35,-14.39 157.40,-14.50 158.43,-14.26 159.45,-14.03 160.35,-13.48 161.25,-12.93 161.93,-12.12 162.60,-11.31 162.99,-10.33 163.37,-9.35 163.42,-8.29 163.47,-7.24 163.18,-6.23 162.89,-5.21 162.29,-4.35 161.69,-3.48 160.85,-2.85 160.00,-2.21 159.00,-1.89 158.00,-1.56 156.95,-1.56 155.89,-1.57 154.89,-1.92 153.90,-2.26 153.06,-2.91 152.23,-3.55 151.64,-4.43 151.06,-5.30 150.79,-6.32 150.51,-7.34 150.58,-8.39 150.64,-9.45 151.04,-10.42 151.44,-11.40 152.13,-12.20 152.82,-12.99 153.72,-13.53 154.63,-14.07 155.66,-14.29 156.69,-14.50 157.74,-14.38 158.79,-14.26 159.74,-13.81 160.69,-13.36 161.45,-12.63 162.21,-11.90 162.70,-10.96 163.19,-10.03 163.35,-8.99 163.51,-7.94 163.51,-7.94 163.51,-7.95 163.45,-4.04 163.39,-0.13 163.24,3.64 163.09,7.43 162.26,11.36 161.44,15.30 160.49,18.80 159.54,22.31 158.63,25.55 157.73,28.79 156.36,32.39 154.99,35.99 154.07,38.32 153.16,40.66 151.42,43.90 149.67,47.14 148.57,49.10 147.47,51.05 144.82,53.93 142.16,56.80 139.25,59.26 136.35,61.72 133.03,64.35 129.71,66.99 127.61,67.98 125.52,68.97 121.74,69.87 117.96,70.76 114.88,71.26 111.80,71.76 109.45,72.26 107.10,72.76 103.60,73.06 100.09,73.35 97.19,73.24 94.28,73.12 90.41,72.68 86.53,72.24 82.48,71.23 78.43,70.22 76.36,69.68 74.29,69.15 72.14,68.56 69.99,67.97 66.33,67.07 62.67,66.17 59.34,65.02 56.02,63.87 51.81,62.24 47.59,60.61 43.75,59.03 39.92,57.45 37.15,56.12 34.38,54.79 31.41,52.91 28.44,51.03 25.22,49.16 22.01,47.29 20.09,46.12 18.16,44.94 15.86,42.31 13.57,39.68 11.06,36.50 8.56,33.32 7.04,31.36 5.53,29.40 4.47,27.50 3.42,25.60 2.45,23.60 1.48,21.59 0.55,19.58 -0.38,17.56 -1.75,13.88 -3.12,10.21 -3.91,7.75 -4.70,5.29 -4.96,2.97 -5.21,0.65 -5.21,0.01 -5.21,-0.61 -5.06,-1.23 -4.91,-1.84 -4.62,-2.40 -4.33,-2.96 -3.91,-3.44 -3.49,-3.92 -2.97,-4.28 -2.45,-4.64 -1.86,-4.87 -1.27,-5.09 -0.64,-5.17 -0.01,-5.25 0.61,-5.18 1.23,-5.10 1.83,-4.88 2.42,-4.66 2.94,-4.30 3.47,-3.94 3.89,-3.47 4.31,-2.99 4.61,-2.44 4.90,-1.88 5.06,-1.26 5.21,-0.65 5.21,-0.65 L 5.21,-0.65 Z"></path></g></svg>